<svg width="32" height="32" viewBox="0 0 32 32" fill="none" xmlns="http://www.w3.org/2000/svg">
<path d="M27.8 11.5C27.8 11.5 27.6 9.9 26.8 9.2C26.1 8.6 25.3 8.2 24.4 8.2C21 8 16 8 16 8C16 8 11 8 7.6 8.2C6.7 8.2 5.8 8.5 5.2 9.2C4.5 9.9 4.2 11.5 4.2 11.5C4.1 12.7 4 13.9 4 15.1V16.8C4 18 4.1 19.3 4.2 20.5C4.2 20.5 4.4 22.1 5.2 22.8C6.1 23.7 7.3 23.7 7.8 23.8C9.8 23.9 16 24 16 24C16 24 21 24 24.4 23.8C25.3 23.8 26.2 23.5 26.8 22.8C27.5 22.1 27.8 20.5 27.8 20.5C27.9 19.3 28 18 28 16.8V15.1C28 13.9 27.9 12.7 27.8 11.5ZM13.5 19V12.6L20 15.8L13.5 19Z" fill="white"/>
</svg>
