<svg width="32" height="32" viewBox="0 0 32 32" fill="none" xmlns="http://www.w3.org/2000/svg">
<path d="M25 5.3H6.8C5.9 5.3 5.3 5.8 5.3 6.6V24.9C5.3 25.7 5.9 26.6 6.8 26.6H25C25.9 26.5 26.6 25.8 26.7 24.9V6.7C26.7 5.8 25.9 5.3 25 5.3ZM11.7 23.3H8.7V13.3H11.7V23.3ZM10 11.7C9 11.7 8.2 10.9 8.2 9.9C8.2 8.9 9 8.1 10 8.1C11 8.1 11.8 8.9 11.8 9.9C11.8 10.9 11 11.7 10 11.7ZM23.3 23.3H20.3V18.3C20.3 17.1 20.4 15.6 18.8 15.6C17.2 15.6 17 16.9 17 18.2V23.3H13.7V13.3H16.7V14.6C17.3 13.6 18.4 12.9 19.7 12.9C22.9 12.9 23.5 14.9 23.5 17.7V23.3H23.3Z" fill="white"/>
</svg>
