<svg width="32" height="32" viewBox="0 0 32 32" fill="none" xmlns="http://www.w3.org/2000/svg">
<path d="M16 7.3C18.8 7.3 19.2 7.3 20.3 7.4C21 7.4 21.6 7.5 22.3 7.8C23.2 8.2 24 8.9 24.3 9.8C24.5 10.4 24.7 11.1 24.7 11.8C24.8 12.9 24.8 13.3 24.8 16.1C24.8 18.9 24.8 19.3 24.7 20.4C24.7 21.1 24.6 21.7 24.3 22.4C23.9 23.3 23.2 24.1 22.3 24.4C21.7 24.6 21 24.8 20.3 24.8C19.2 24.9 18.8 24.9 16 24.9C13.2 24.9 12.8 24.9 11.7 24.8C11 24.8 10.4 24.7 9.69999 24.4C8.79999 24 7.99999 23.3 7.69999 22.4C7.49999 21.8 7.29999 21.1 7.29999 20.4C7.19999 19.3 7.19999 18.9 7.19999 16.1C7.19999 13.3 7.19999 12.9 7.29999 11.8C7.29999 11.1 7.39999 10.5 7.69999 9.8C8.09999 8.9 8.79999 8.1 9.69999 7.8C10.3 7.6 11 7.4 11.7 7.4C12.8 7.3 13.2 7.3 16 7.3ZM16 5.3C13.1 5.3 12.7 5.3 11.6 5.4C10.7 5.4 9.79999 5.6 8.99999 5.9C7.59999 6.4 6.39999 7.6 5.89999 9C5.59999 9.8 5.39999 10.7 5.39999 11.6C5.29999 12.7 5.29999 13.1 5.29999 16C5.29999 18.9 5.29999 19.3 5.39999 20.4C5.39999 21.3 5.59999 22.2 5.89999 23C6.49999 24.4 7.59999 25.6 8.99999 26.1C9.79999 26.4 10.7 26.6 11.6 26.6C12.7 26.7 13.1 26.7 16 26.7C18.9 26.7 19.3 26.7 20.4 26.6C21.3 26.6 22.2 26.4 23 26.1C24.4 25.5 25.6 24.4 26.1 23C26.4 22.2 26.6 21.3 26.6 20.4C26.7 19.3 26.7 18.9 26.7 16C26.7 13.1 26.7 12.7 26.6 11.6C26.6 10.7 26.4 9.8 26.1 9C25.5 7.6 24.4 6.4 23 5.9C22.2 5.6 21.3 5.4 20.4 5.4C19.3 5.3 18.9 5.3 16 5.3ZM16 10.5C13 10.5 10.5 13 10.5 16C10.5 19 13 21.5 16 21.5C19 21.5 21.5 19 21.5 16C21.5 13 19 10.5 16 10.5ZM16 19.6C14 19.6 12.4 18 12.4 16C12.4 14 14 12.4 16 12.4C18 12.4 19.6 14 19.6 16C19.6 18 18 19.6 16 19.6ZM21.7 9C22.4 9 23 9.6 23 10.3C23 11 22.4 11.6 21.7 11.6C21 11.6 20.4 11 20.4 10.3C20.4 9.6 21 9 21.7 9Z" fill="white"/>
</svg>
