<svg width="135" height="40" viewBox="0 0 135 40" fill="none" xmlns="http://www.w3.org/2000/svg">
<g clip-path="url(#clip0_2_30)">
<path d="M128 0H7C3.13401 0 0 3.13401 0 7V33C0 36.866 3.13401 40 7 40H128C131.866 40 135 36.866 135 33V7C135 3.13401 131.866 0 128 0Z" fill="white"/>
<path d="M34.07 14.46V25.54C34.07 30.76 32.16 32.67 26.94 32.67H15.86C10.64 32.67 8.73999 30.76 8.73999 25.54V14.46C8.73999 9.24 10.64 7.33 15.86 7.33H26.94C32.16 7.33 34.07 9.24 34.07 14.46Z" fill="#C8102E"/>
<path d="M46.19 18.44L41.6 30.13H43.66L44.81 27H49.49L50.66 30.13H52.82L48.13 18.44H46.19ZM45.4 25.44L46.64 22.08C46.82 21.56 46.98 21.08 47.13 20.56C47.2967 21.12 47.4667 21.63 47.64 22.09L48.89 25.44H45.4ZM59.89 21.7C59.3992 21.4109 58.8397 21.2589 58.27 21.26C57.7609 21.2655 57.2592 21.382 56.7998 21.6013C56.3404 21.8207 55.9343 22.1376 55.61 22.53C55.581 22.1575 55.5309 21.7869 55.46 21.42H53.59C53.63 22.2 53.65 22.91 53.65 23.55V33.78L55.65 33.61V30C56.214 30.19 56.8049 30.288 57.4 30.29C58.1568 30.3081 58.904 30.1178 59.56 29.74C60.1917 29.3523 60.6931 28.7847 61 28.11C61.3688 27.2906 61.5466 26.3982 61.52 25.5C61.5508 24.6722 61.3935 23.8482 61.06 23.09C60.814 22.5224 60.4073 22.0393 59.89 21.7ZM58.9 28C58.6923 28.2711 58.4217 28.4875 58.1115 28.6304C57.8013 28.7733 57.461 28.8384 57.12 28.82C56.8575 28.8191 56.5958 28.7889 56.34 28.73C56.1006 28.6853 55.8684 28.6079 55.65 28.5V23.85C55.9207 23.5576 56.2343 23.3081 56.58 23.11C56.9112 22.9297 57.2829 22.8368 57.66 22.84C57.9191 22.8333 58.176 22.8888 58.4091 23.0019C58.6423 23.115 58.8449 23.2824 59 23.49C59.3914 24.1243 59.5701 24.8671 59.51 25.61C59.5635 26.451 59.35 27.2875 58.9 28ZM69 21.7C68.5132 21.4098 67.9567 21.2577 67.39 21.26C66.8797 21.2667 66.3769 21.3837 65.9161 21.6029C65.4552 21.8221 65.0472 22.1384 64.72 22.53C64.6993 22.1572 64.6525 21.7863 64.58 21.42H62.69C62.73 22.2 62.75 22.91 62.75 23.55V33.78L64.75 33.61V30C65.3174 30.1901 65.9116 30.288 66.51 30.29C67.2666 30.3066 68.0134 30.1164 68.67 29.74C69.3082 29.3498 69.8163 28.7791 70.13 28.1C70.4943 27.2792 70.6719 26.3878 70.65 25.49C70.6808 24.6622 70.5235 23.8382 70.19 23.08C69.9395 22.5118 69.5251 22.0313 69 21.7ZM68 28C67.7951 28.2716 67.5264 28.4885 67.2176 28.6316C66.9089 28.7746 66.5697 28.8393 66.23 28.82C65.9674 28.8197 65.7057 28.7895 65.45 28.73C65.207 28.6867 64.9713 28.6093 64.75 28.5V23.85C65.0245 23.5576 65.3413 23.3082 65.69 23.11C66.0181 22.931 66.3862 22.8381 66.76 22.84C67.0205 22.8333 67.2788 22.8888 67.5136 23.0018C67.7483 23.1149 67.9528 23.2822 68.11 23.49C68.4928 24.1276 68.6676 24.8686 68.61 25.61C68.6635 26.451 68.45 27.2875 68 28ZM77 24.39H81.65V29.32C80.9736 29.6328 80.2665 29.8741 79.54 30.04C78.8211 30.202 78.0869 30.2859 77.35 30.29C76.3052 30.3079 75.2729 30.0602 74.35 29.57C73.4998 29.1164 72.8036 28.4202 72.35 27.57C71.8686 26.5948 71.6318 25.5172 71.66 24.43C71.625 23.2622 71.9011 22.106 72.46 21.08C72.951 20.1895 73.6959 19.4654 74.6 19C75.5576 18.5295 76.6132 18.293 77.68 18.31C78.3303 18.3079 78.9784 18.3852 79.61 18.54C80.1999 18.6779 80.7732 18.8791 81.32 19.14L80.81 20.68C79.8792 20.206 78.8542 19.9463 77.81 19.92C77.0665 19.9017 76.3314 20.0811 75.68 20.44C75.0619 20.7965 74.564 21.3292 74.25 21.97C73.8906 22.732 73.7159 23.5679 73.74 24.41C73.7271 25.1681 73.8595 25.9217 74.13 26.63C74.3802 27.253 74.8123 27.7862 75.37 28.16C76.0058 28.5615 76.7486 28.7603 77.5 28.73C77.8889 28.7311 78.2771 28.6976 78.66 28.63C79.0313 28.571 79.3962 28.4773 79.75 28.35V26H77V24.39ZM90.54 25C90.5726 24.2258 90.4218 23.4549 90.1 22.75C89.8358 22.2273 89.3972 21.8134 88.86 21.58C88.2506 21.3334 87.5972 21.2142 86.94 21.23C86.3212 21.2284 85.7041 21.2955 85.1 21.43C84.6205 21.5367 84.1519 21.6873 83.7 21.88L84 23.36C84.4116 23.1727 84.8402 23.0254 85.28 22.92C85.7229 22.7966 86.1802 22.7327 86.64 22.73C87.1529 22.6997 87.6578 22.868 88.05 23.2C88.2371 23.425 88.3777 23.685 88.4635 23.9648C88.5493 24.2447 88.5787 24.5387 88.55 24.83V25C88.0368 24.9252 87.5187 24.8884 87 24.89C85.9448 24.8037 84.8905 25.0673 84 25.64C83.7054 25.8815 83.4702 26.1875 83.3125 26.5342C83.1547 26.8809 83.0786 27.2592 83.09 27.64C83.0734 28.1473 83.198 28.6493 83.45 29.09C83.6868 29.48 84.0351 29.7901 84.45 29.98C84.8776 30.1837 85.3464 30.2863 85.82 30.28C86.4002 30.2884 86.9736 30.1545 87.49 29.89C87.913 29.6663 88.2897 29.3643 88.6 29C88.6129 29.3862 88.6563 29.7707 88.73 30.15H90.61C90.61 29.42 90.54 28.88 90.54 28.52V25ZM88.54 27.75C88.2544 28.0554 87.9155 28.3062 87.54 28.49C87.1612 28.6808 86.7441 28.7834 86.32 28.79C85.9824 28.8049 85.6512 28.6945 85.39 28.48C85.2614 28.3495 85.1633 28.1922 85.1028 28.0193C85.0423 27.8464 85.0209 27.6622 85.04 27.48C85.0321 27.2753 85.0713 27.0714 85.1545 26.8842C85.2377 26.697 85.3627 26.5313 85.52 26.4C86.0276 26.0841 86.6248 25.9436 87.22 26C87.6679 26.0065 88.1152 26.0365 88.56 26.09L88.54 27.75ZM95.35 28.59L95.59 30.02C95.3654 30.0991 95.1346 30.1593 94.9 30.2C94.6453 30.2414 94.388 30.2648 94.13 30.27C92.74 30.27 92.05 29.52 92.05 28.01V17.75L94.05 17.59V27.69C94.0244 27.9671 94.0912 28.2449 94.24 28.48C94.3158 28.5616 94.4093 28.6247 94.5133 28.6646C94.6173 28.7044 94.7291 28.72 94.84 28.71C95.0197 28.7022 95.1978 28.672 95.37 28.62L95.35 28.59ZM100.35 28.59L100.58 30.02C100.355 30.0991 100.125 30.1593 99.89 30.2C99.6353 30.2418 99.378 30.2652 99.12 30.27C97.73 30.3 97 29.55 97 28V17.75L99 17.59V27.69C98.9744 27.9671 99.0412 28.2449 99.19 28.48C99.2667 28.5604 99.3604 28.6227 99.4641 28.6625C99.5679 28.7023 99.6792 28.7185 99.79 28.71C99.9764 28.7031 100.161 28.6729 100.34 28.62L100.35 28.59ZM107.12 21.81C106.511 21.4051 105.791 21.2022 105.06 21.23C104.323 21.2193 103.597 21.4095 102.96 21.78C102.347 22.1638 101.858 22.7158 101.55 23.37C101.192 24.1502 101.018 25.0019 101.04 25.86C101.018 26.6762 101.183 27.4865 101.52 28.23C101.826 28.8715 102.326 29.4 102.95 29.74C103.673 30.1111 104.478 30.2934 105.29 30.27C106.426 30.287 107.552 30.0442 108.58 29.56L108.14 28.19C107.743 28.3606 107.331 28.4945 106.91 28.59C106.5 28.6879 106.081 28.7383 105.66 28.74C104.01 28.74 103.14 27.83 103.05 26H108.75V25.5C108.76 24.7736 108.624 24.0526 108.35 23.38C108.095 22.7573 107.664 22.2222 107.11 21.84L107.12 21.81ZM103.12 24.74C103.171 24.1656 103.398 23.621 103.77 23.18C103.933 23.008 104.13 22.872 104.349 22.7807C104.568 22.6895 104.803 22.6449 105.04 22.65C105.274 22.6414 105.506 22.6834 105.722 22.7732C105.938 22.8629 106.131 22.9983 106.29 23.17C106.639 23.618 106.822 24.1725 106.81 24.74H103.12ZM114.71 21.23C114.977 21.2235 115.243 21.2572 115.5 21.33L115.25 23.06C115.039 22.998 114.82 22.9676 114.6 22.97C114.163 22.9602 113.733 23.086 113.37 23.33C112.934 23.6587 112.556 24.0575 112.25 24.51V30.1H110.25V23.61C110.25 23.13 110.25 22.4 110.18 21.42H112.05C112.05 21.6733 112.08 21.9633 112.14 22.29C112.14 22.63 112.14 22.9 112.2 23.11C112.399 22.759 112.627 22.4245 112.88 22.11C113.103 21.851 113.37 21.6343 113.67 21.47C113.985 21.3112 114.337 21.2387 114.69 21.26L114.71 21.23ZM124.71 21.39L121.5 30.22C121.248 30.9245 120.913 31.596 120.5 32.22C120.188 32.6946 119.761 33.0832 119.26 33.35C118.723 33.6156 118.129 33.7461 117.53 33.73C117.218 33.7299 116.907 33.7032 116.6 33.65C116.356 33.6095 116.116 33.5527 115.88 33.48L116.24 32.02C116.407 32.0677 116.578 32.1045 116.75 32.13C116.943 32.1487 117.137 32.1487 117.33 32.13C118.21 32.13 118.88 31.57 119.33 30.43L119.46 30.11L116.24 21.32H118.38L120 26.33C120.207 26.9631 120.377 27.6074 120.51 28.26C120.66 27.63 120.84 27 121.04 26.37L122.68 21.42L124.71 21.39ZM30.58 20H31.24V23.31H30.58V20ZM13.75 20H14.42V23.31H13.75V22H12.24V23.34H11.56V20H12.24V21.34H13.75V20ZM17.54 20H18.21V21.87C18.2345 22.0663 18.2148 22.2657 18.1525 22.4534C18.0902 22.6412 17.9868 22.8128 17.8498 22.9555C17.7128 23.0983 17.5457 23.2086 17.3606 23.2786C17.1755 23.3486 16.9772 23.3764 16.78 23.36C16.5856 23.3778 16.3897 23.3519 16.2065 23.2842C16.0234 23.2165 15.8578 23.1087 15.7217 22.9688C15.5855 22.8288 15.4824 22.6603 15.4199 22.4753C15.3573 22.2904 15.3368 22.0938 15.36 21.9V20H16V21.88C16 22.43 16.27 22.72 16.76 22.72C17.25 22.72 17.51 22.44 17.51 21.9L17.54 20ZM27.94 22.71H29.78V23.31H27.28V20H29.71V20.61H27.94V21.29H29.16V21.89H27.94V22.71ZM26 20H26.69L25.54 23.31H25L24.25 21.14L23.5 23.31H23L21.81 20H22.52L23.25 22.28L24 20H24.55L25.3 22.28L26 20ZM20 20L18.54 23.31H19.23L19.53 22.62H21.04L21.34 23.31H22.05L20.6 20H20ZM19.78 22L20.28 20.81L20.8 22H19.78ZM21.39 15.76C20.2733 15.7547 19.2041 15.3081 18.4154 14.5176C17.6267 13.727 17.1826 12.6567 17.18 11.54H17.77C17.77 12.5001 18.1514 13.4208 18.8303 14.0997C19.5092 14.7786 20.4299 15.16 21.39 15.16C22.3501 15.16 23.2708 14.7786 23.9497 14.0997C24.6286 13.4208 25.01 12.5001 25.01 11.54H25.61C25.6126 12.0955 25.5058 12.6461 25.2957 13.1603C25.0855 13.6745 24.7762 14.1423 24.3852 14.5369C23.9943 14.9316 23.5294 15.2454 23.0172 15.4604C22.505 15.6754 21.9555 15.7874 21.4 15.79L21.39 15.76ZM43.82 7.22C43.4258 7.19676 43.0314 7.2609 42.6649 7.40785C42.2984 7.55479 41.9689 7.78089 41.7 8.07C41.1766 8.77443 40.9278 9.6454 41 10.52C40.9221 11.4029 41.1673 12.2842 41.69 13C42.2521 13.5588 43.0124 13.8724 43.805 13.8724C44.5976 13.8724 45.3579 13.5588 45.92 13C46.4572 12.3043 46.7236 11.4373 46.67 10.56C46.7247 9.68415 46.462 8.81793 45.93 8.12C45.6691 7.82035 45.3437 7.58371 44.9783 7.42783C44.6128 7.27195 44.2168 7.2009 43.82 7.22ZM45.16 12.33C44.992 12.5213 44.7851 12.6746 44.5532 12.7796C44.3213 12.8846 44.0696 12.9389 43.815 12.9389C43.5604 12.9389 43.3087 12.8846 43.0768 12.7796C42.8449 12.6746 42.638 12.5213 42.47 12.33C42.1301 11.7938 41.969 11.1636 42.01 10.53C41.969 9.89644 42.1301 9.26621 42.47 8.73C42.6286 8.52639 42.8344 8.36445 43.0696 8.25817C43.3048 8.15189 43.5624 8.10447 43.82 8.12C44.0762 8.10439 44.3323 8.15184 44.5659 8.25818C44.7995 8.36453 45.0035 8.52653 45.16 8.73C45.4964 9.26738 45.654 9.89752 45.61 10.53C45.654 11.1625 45.4964 11.7926 45.16 12.33ZM49.87 7.33H48V13.76H49.71C50.1491 13.7895 50.5896 13.7303 51.0054 13.586C51.4211 13.4417 51.8036 13.2152 52.13 12.92C52.4226 12.5882 52.6466 12.2018 52.789 11.783C52.9315 11.3642 52.9896 10.9214 52.96 10.48C52.9856 10.0589 52.9272 9.6369 52.7881 9.2386C52.6491 8.84029 52.4322 8.47364 52.15 8.16C51.8496 7.86871 51.4915 7.6435 51.0988 7.49884C50.7062 7.35417 50.2876 7.29326 49.87 7.32V7.33ZM49.69 12.87H49V8.2H49.86C51.23 8.2 51.86 8.97 51.86 10.51C51.86 12.05 51.16 12.86 49.69 12.86V12.87ZM56.56 10.15L58.91 13.76H57.76L55.84 10.85L55.25 11.35V13.76H54.25V7.32H55.25V10.39L56.07 9.39L57.72 7.39H58.85C57.79 8.64 57 9.58 56.56 10.14V10.15ZM63.76 9.15C63.7794 8.88849 63.738 8.62603 63.6392 8.38316C63.5403 8.14029 63.3865 7.92359 63.19 7.75C62.6772 7.39866 62.0598 7.23286 61.44 7.28H59.72V13.71H60.72V11.18H61.72L63.18 13.75H64.3L62.58 10.9C62.9336 10.7784 63.2389 10.5468 63.4512 10.2391C63.6636 9.93133 63.7718 9.56369 63.76 9.19V9.15ZM61.41 10.27H60.72V8.21H61.38C61.7296 8.19046 62.0773 8.27391 62.38 8.45C62.4948 8.54295 62.5849 8.66273 62.6425 8.79876C62.7 8.93479 62.7232 9.08289 62.71 9.23C62.7224 9.37962 62.701 9.53013 62.6474 9.67036C62.5937 9.81058 62.5092 9.93692 62.4 10.04C62.1109 10.2413 61.7612 10.3366 61.41 10.31V10.27ZM68.35 7.27H69.44L67.44 11.21V13.7H66.44V11.29L64.44 7.29H65.52L66.97 10.22L68.35 7.27ZM76.46 7.27H77.46L75.87 13.7H74.79L73.79 9.87C73.74 9.7 73.69 9.46 73.62 9.14C73.5673 8.92586 73.5273 8.70882 73.5 8.49C73.5 8.67 73.42 8.92 73.36 9.22C73.3195 9.44292 73.2661 9.66329 73.2 9.88L72.2 13.7H71.08L70.29 10.48L69.49 7.27H70.49L71.36 11.02C71.5 11.62 71.59 12.15 71.65 12.61C71.65 12.36 71.73 12.08 71.79 11.77C71.85 11.46 71.91 11.22 71.96 11.03L72.96 7.27H73.96L74.96 11.04C75.0925 11.5572 75.1959 12.0813 75.27 12.61C75.3322 12.0703 75.4325 11.5356 75.57 11.01L76.46 7.27ZM80.89 7.27H79.81L77.53 13.72H78.53L79.17 12H81.51L82.12 13.79H83.18L80.89 7.27ZM79.47 11.03L80 9.38C80.13 8.99254 80.2402 8.5987 80.33 8.2L80.48 8.76C80.55 9.01 80.61 9.19 80.65 9.31L81.23 11.06L79.47 11.03ZM84 7.32H85V13.52C85.0354 14.0579 84.8756 14.5904 84.55 15.02C84.3869 15.1995 84.1851 15.3397 83.9599 15.4297C83.7347 15.5198 83.4919 15.5575 83.25 15.54C83.0185 15.5451 82.7881 15.5078 82.57 15.43V14.55C82.7687 14.6058 82.9737 14.636 83.18 14.64C83.72 14.64 83.99 14.28 83.99 13.55L84 7.32ZM96 7.32L94.41 13.75H93.31L92.31 9.92C92.31 9.75 92.21 9.51 92.14 9.19C92.07 8.87 92 8.66 92 8.54C92 8.72 91.93 8.97 91.87 9.27C91.81 9.57 91.75 9.79 91.71 9.93L90.71 13.75H89.59L88.81 10.53L88 7.32H89L89.88 11.07C90.01 11.67 90.11 12.2 90.17 12.66C90.202 12.3778 90.2487 12.0974 90.31 11.82C90.37 11.52 90.42 11.27 90.47 11.08L91.47 7.32H92.47L93.47 11.09C93.6025 11.6072 93.7059 12.1313 93.78 12.66C93.8422 12.1203 93.9425 11.5856 94.08 11.06L95 7.32H96Z" fill="black"/>
</g>
<defs>
<clipPath id="clip0_2_30">
<rect width="135" height="40" fill="white"/>
</clipPath>
</defs>
</svg>
