<svg width="32" height="32" viewBox="0 0 32 32" fill="none" xmlns="http://www.w3.org/2000/svg">
<path d="M16 5.3C10.1 5.3 5.29999 10.1 5.29999 16C5.29999 20.4 7.99999 24.3 12.1 25.9C12 24.9 12 23.9 12.1 22.8C12.3 22 13.4 17.5 13.4 17.5C13.2 17 13.1 16.5 13.1 15.9C13.1 14.4 14 13.3 15 13.3C15.9 13.3 16.3 14 16.3 14.8C16.3 15.7 15.7 17.1 15.4 18.4C15.2 19.2 15.7 20.1 16.5 20.3C16.6 20.3 16.8 20.4 17 20.3C18.9 20.3 20.4 18.3 20.4 15.4C20.4 12.8 18.6 11.1 15.9 11.1C12.9 11.1 11.1 13.4 11.1 15.7C11.1 16.6 11.4 17.4 11.9 18.1C12 18.2 12 18.3 12 18.4C11.9 18.7 11.7 19.5 11.7 19.6C11.7 19.8 11.5 19.8 11.3 19.7C9.99999 19.1 9.09999 17.1 9.09999 15.6C9.09999 12.2 11.5 9.1 16.1 9.1C19.8 9.1 22.7 11.7 22.7 15.3C22.7 19 20.4 21.9 17.2 21.9C16.1 21.9 15.1 21.3 14.8 20.7C14.8 20.7 14.3 22.7 14.1 23.2C13.8 24.2 13.3 25.1 12.8 26C18.4 27.7 24.4 24.6 26.2 19C27.9 13.4 24.8 7.4 19.2 5.6C18.1 5.5 17.1 5.3 16 5.3Z" fill="white"/>
</svg>
