<svg width="24" height="23" viewBox="0 0 24 23" fill="none" xmlns="http://www.w3.org/2000/svg">
<path d="M16.9999 8.78792C16.8126 8.60943 16.5591 8.50925 16.2949 8.50925C16.0308 8.50925 15.7773 8.60943 15.5899 8.78792L11.9999 12.1804L8.45995 8.78792C8.27259 8.60943 8.01913 8.50925 7.75495 8.50925C7.49076 8.50925 7.23731 8.60943 7.04995 8.78792C6.95622 8.87701 6.88183 8.98301 6.83106 9.09979C6.78029 9.21657 6.75415 9.34183 6.75415 9.46834C6.75415 9.59485 6.78029 9.72011 6.83106 9.83689C6.88183 9.95367 6.95622 10.0597 7.04995 10.1488L11.2899 14.2121C11.3829 14.3019 11.4935 14.3732 11.6154 14.4219C11.7372 14.4705 11.8679 14.4956 11.9999 14.4956C12.132 14.4956 12.2627 14.4705 12.3845 14.4219C12.5064 14.3732 12.617 14.3019 12.7099 14.2121L16.9999 10.1488C17.0937 10.0597 17.1681 9.95367 17.2188 9.83689C17.2696 9.72011 17.2957 9.59485 17.2957 9.46834C17.2957 9.34183 17.2696 9.21657 17.2188 9.09979C17.1681 8.98301 17.0937 8.87701 16.9999 8.78792Z" fill="black"/>
</svg>
