<svg width="24" height="25" viewBox="0 0 24 25" fill="none" xmlns="http://www.w3.org/2000/svg">
<path d="M8.4678 8.89454L8.46555 8.89637L8.46341 8.89845L8.4678 8.89454ZM18.4219 8.70801C18.3523 8.64096 18.2751 8.58229 18.1919 8.5332C18.0741 8.46387 17.9433 8.41943 17.8076 8.40264C17.672 8.38586 17.5343 8.39708 17.4031 8.43562C17.272 8.47415 17.1501 8.53918 17.0451 8.62668C16.9401 8.71418 16.8541 8.8223 16.7925 8.94434C16.448 9.62303 15.9729 10.227 15.3945 10.7217C15.483 10.2233 15.5276 9.7181 15.5278 9.21191C15.5297 7.67201 15.1234 6.15912 14.3505 4.82728C13.5775 3.49543 12.4654 2.3922 11.1274 1.62991C10.98 1.54636 10.8138 1.50162 10.6444 1.4999C10.475 1.49817 10.3079 1.53952 10.1588 1.62006C10.0098 1.70059 9.88362 1.81768 9.7922 1.96032C9.70078 2.10297 9.6471 2.26651 9.6362 2.43558C9.58024 3.38376 9.33236 4.3107 8.90759 5.16025C8.48282 6.0098 7.88999 6.76427 7.16503 7.37794L6.93456 7.56544C6.17648 8.07553 5.50546 8.70434 4.94726 9.42774C4.07958 10.5208 3.47851 11.8011 3.19172 13.1669C2.90493 14.5328 2.94031 15.9466 3.29506 17.2964C3.6498 18.6462 4.31415 19.8948 5.23543 20.9431C6.1567 21.9914 7.30956 22.8107 8.60257 23.336C8.75439 23.398 8.91914 23.4217 9.08229 23.405C9.24545 23.3883 9.40198 23.3318 9.5381 23.2403C9.67422 23.1488 9.78573 23.0252 9.8628 22.8805C9.93987 22.7357 9.98013 22.5742 9.98003 22.4102C9.97932 22.3041 9.96252 22.1987 9.93023 22.0977C9.7065 21.2567 9.64208 20.3813 9.74028 19.5166C10.6865 21.3013 12.2054 22.716 14.0528 23.5332C14.2783 23.6341 14.5332 23.6477 14.7681 23.5713C16.2277 23.1002 17.5425 22.2637 18.5878 21.1414C19.633 20.019 20.3739 18.648 20.74 17.1586C21.1061 15.6692 21.0853 14.111 20.6796 12.6319C20.2739 11.1529 19.4967 9.80212 18.4219 8.70801ZM14.5171 21.5391C13.6454 21.0973 12.8765 20.477 12.2603 19.7185C11.6441 18.9601 11.1944 18.0804 10.9405 17.1367C10.8629 16.819 10.8029 16.4972 10.7608 16.1729C10.7322 15.9663 10.6398 15.7739 10.4965 15.6224C10.3532 15.4709 10.1661 15.3681 9.96146 15.3281C9.89841 15.3157 9.8343 15.3095 9.77003 15.3096C9.59427 15.3095 9.42161 15.3558 9.26944 15.4438C9.11728 15.5317 8.991 15.6582 8.90333 15.8106C8.0736 17.2417 7.65633 18.8746 7.69776 20.5284C6.968 19.961 6.35811 19.2544 5.90344 18.4495C5.44876 17.6447 5.15835 16.7576 5.04903 15.8397C4.93971 14.9219 5.01366 13.9914 5.26658 13.1023C5.51951 12.2132 5.94639 11.3831 6.52247 10.6602C6.95989 10.092 7.48756 9.59949 8.08447 9.20219C8.11032 9.18551 8.1351 9.16725 8.15869 9.1475C8.15869 9.1475 8.45538 8.90202 8.46552 8.8964C9.89022 7.69137 10.9035 6.07192 11.3643 4.26371C12.4538 5.27095 13.1804 6.60974 13.431 8.07222C13.6817 9.5347 13.4425 11.039 12.7505 12.3516C12.6591 12.5268 12.6216 12.7251 12.6427 12.9215C12.6639 13.1179 12.7427 13.3037 12.8693 13.4554C12.9959 13.6071 13.1646 13.7179 13.3541 13.7738C13.5436 13.8297 13.7454 13.8282 13.9341 13.7696C15.4659 13.2894 16.8138 12.3515 17.7964 11.0821C18.3869 11.9544 18.773 12.9487 18.9259 13.991C19.0787 15.0332 18.9944 16.0965 18.6792 17.1017C18.364 18.1068 17.826 19.0278 17.1054 19.7961C16.3847 20.5645 15.5 21.1602 14.5171 21.5391L14.5171 21.5391Z" fill="black" fill-opacity="0.54"/>
<path d="M8.58597 12.5342C8.78375 12.5342 8.97709 12.4682 9.14154 12.3446C9.30599 12.221 9.43416 12.0453 9.50985 11.8397C9.58554 11.6341 9.60534 11.4079 9.56675 11.1897C9.52817 10.9715 9.43293 10.771 9.29308 10.6137C9.15322 10.4563 8.97504 10.3492 8.78106 10.3058C8.58708 10.2624 8.38601 10.2847 8.20329 10.3698C8.02056 10.455 7.86438 10.5991 7.7545 10.7842C7.64462 10.9692 7.58597 11.1867 7.58597 11.4092C7.58626 11.7074 7.69171 11.9934 7.87918 12.2043C8.06666 12.4152 8.32084 12.5338 8.58597 12.5342ZM8.58597 11.0342C8.6519 11.0342 8.71634 11.0562 8.77116 11.0974C8.82598 11.1386 8.8687 11.1971 8.89393 11.2657C8.91916 11.3342 8.92576 11.4096 8.9129 11.4823C8.90004 11.5551 8.86829 11.6219 8.82167 11.6743C8.77505 11.7268 8.71566 11.7625 8.651 11.777C8.58634 11.7914 8.51932 11.784 8.45841 11.7556C8.3975 11.7272 8.34544 11.6792 8.30881 11.6175C8.27219 11.5558 8.25264 11.4833 8.25264 11.4092C8.25269 11.3097 8.28783 11.2144 8.35033 11.1441C8.41283 11.0738 8.49758 11.0342 8.58597 11.0342ZM11.4141 13.4658C11.2163 13.4658 11.023 13.5318 10.8585 13.6554C10.6941 13.779 10.5659 13.9547 10.4902 14.1603C10.4145 14.3659 10.3947 14.5921 10.4333 14.8103C10.4719 15.0285 10.5671 15.229 10.707 15.3863C10.8468 15.5436 11.025 15.6508 11.219 15.6942C11.413 15.7376 11.6141 15.7153 11.7968 15.6302C11.9795 15.545 12.1357 15.4008 12.2456 15.2158C12.3554 15.0308 12.4141 14.8133 12.4141 14.5908C12.4138 14.2925 12.3084 14.0066 12.1209 13.7957C11.9334 13.5848 11.6792 13.4661 11.4141 13.4658ZM11.4141 14.9658C11.3482 14.9658 11.2837 14.9438 11.2289 14.9026C11.1741 14.8614 11.1314 14.8028 11.1061 14.7343C11.0809 14.6658 11.0743 14.5904 11.0872 14.5177C11.1 14.4449 11.1318 14.3781 11.1784 14.3256C11.225 14.2732 11.2844 14.2375 11.3491 14.223C11.4137 14.2085 11.4807 14.216 11.5417 14.2444C11.6026 14.2727 11.6546 14.3208 11.6913 14.3825C11.7279 14.4441 11.7474 14.5166 11.7474 14.5908C11.7474 14.6902 11.7122 14.7856 11.6497 14.8559C11.5872 14.9262 11.5025 14.9657 11.4141 14.9658ZM12.569 10.1099C12.5381 10.075 12.5013 10.0474 12.4609 10.0286C12.4205 10.0097 12.3771 10 12.3334 10C12.2896 10 12.2462 10.0097 12.2058 10.0286C12.1654 10.0474 12.1286 10.075 12.0977 10.1099L7.43101 15.3599C7.39974 15.3946 7.37489 15.436 7.35788 15.4815C7.34087 15.5271 7.33205 15.576 7.33191 15.6255C7.33177 15.6749 7.34033 15.7239 7.35708 15.7696C7.37384 15.8153 7.39846 15.8568 7.42953 15.8918C7.46061 15.9268 7.49752 15.9545 7.53815 15.9733C7.57878 15.9922 7.62232 16.0018 7.66626 16.0016C7.71021 16.0015 7.75369 15.9915 7.79421 15.9724C7.83473 15.9533 7.87149 15.9253 7.90237 15.8901L12.569 10.6401C12.6 10.6053 12.6245 10.564 12.6413 10.5185C12.6581 10.473 12.6667 10.4242 12.6667 10.375C12.6667 10.3257 12.6581 10.277 12.6413 10.2315C12.6245 10.186 12.6 10.1447 12.569 10.1099Z" fill="black"/>
</svg>
