<svg width="24" height="26" viewBox="0 0 24 26" fill="none" xmlns="http://www.w3.org/2000/svg">
<path d="M19 7.5H16V6.5C16 5.70435 15.6839 4.94129 15.1213 4.37868C14.5587 3.81607 13.7956 3.5 13 3.5H11C10.2044 3.5 9.44129 3.81607 8.87868 4.37868C8.31607 4.94129 8 5.70435 8 6.5V7.5H5C4.20435 7.5 3.44129 7.81607 2.87868 8.37868C2.31607 8.94129 2 9.70435 2 10.5V19.5C2 20.2956 2.31607 21.0587 2.87868 21.6213C3.44129 22.1839 4.20435 22.5 5 22.5H19C19.7956 22.5 20.5587 22.1839 21.1213 21.6213C21.6839 21.0587 22 20.2956 22 19.5V10.5C22 9.70435 21.6839 8.94129 21.1213 8.37868C20.5587 7.81607 19.7956 7.5 19 7.5ZM10 6.5C10 6.23478 10.1054 5.98043 10.2929 5.79289C10.4804 5.60536 10.7348 5.5 11 5.5H13C13.2652 5.5 13.5196 5.60536 13.7071 5.79289C13.8946 5.98043 14 6.23478 14 6.5V7.5H10V6.5ZM20 19.5C20 19.7652 19.8946 20.0196 19.7071 20.2071C19.5196 20.3946 19.2652 20.5 19 20.5H5C4.73478 20.5 4.48043 20.3946 4.29289 20.2071C4.10536 20.0196 4 19.7652 4 19.5V14C4.97544 14.3869 5.97818 14.7011 7 14.94V15.53C7 15.7952 7.10536 16.0496 7.29289 16.2371C7.48043 16.4246 7.73478 16.53 8 16.53C8.26522 16.53 8.51957 16.4246 8.70711 16.2371C8.89464 16.0496 9 15.7952 9 15.53V15.32C9.99435 15.4554 10.9965 15.5255 12 15.53C13.0035 15.5255 14.0057 15.4554 15 15.32V15.53C15 15.7952 15.1054 16.0496 15.2929 16.2371C15.4804 16.4246 15.7348 16.53 16 16.53C16.2652 16.53 16.5196 16.4246 16.7071 16.2371C16.8946 16.0496 17 15.7952 17 15.53V14.94C18.0218 14.7011 19.0246 14.3869 20 14V19.5ZM20 11.81C19.0274 12.2205 18.0244 12.5548 17 12.81V12.5C17 12.2348 16.8946 11.9804 16.7071 11.7929C16.5196 11.6054 16.2652 11.5 16 11.5C15.7348 11.5 15.4804 11.6054 15.2929 11.7929C15.1054 11.9804 15 12.2348 15 12.5V13.24C13.0113 13.54 10.9887 13.54 9 13.24V12.5C9 12.2348 8.89464 11.9804 8.70711 11.7929C8.51957 11.6054 8.26522 11.5 8 11.5C7.73478 11.5 7.48043 11.6054 7.29289 11.7929C7.10536 11.9804 7 12.2348 7 12.5V12.83C5.97562 12.5748 4.9726 12.2405 4 11.83V10.5C4 10.2348 4.10536 9.98043 4.29289 9.79289C4.48043 9.60536 4.73478 9.5 5 9.5H19C19.2652 9.5 19.5196 9.60536 19.7071 9.79289C19.8946 9.98043 20 10.2348 20 10.5V11.81Z" fill="white"/>
</svg>
