<svg width="24" height="27" viewBox="0 0 24 27" fill="none" xmlns="http://www.w3.org/2000/svg">
<path d="M8.4678 9.89454L8.46555 9.89637L8.46341 9.89845L8.4678 9.89454ZM18.4219 9.70801C18.3523 9.64096 18.2751 9.58229 18.1919 9.5332C18.0741 9.46387 17.9433 9.41943 17.8076 9.40264C17.672 9.38586 17.5343 9.39708 17.4031 9.43562C17.272 9.47415 17.1501 9.53918 17.0451 9.62668C16.9401 9.71418 16.8541 9.8223 16.7925 9.94434C16.448 10.623 15.9729 11.227 15.3945 11.7217C15.483 11.2233 15.5276 10.7181 15.5278 10.2119C15.5297 8.67201 15.1234 7.15912 14.3505 5.82728C13.5775 4.49543 12.4654 3.3922 11.1274 2.62991C10.98 2.54636 10.8138 2.50162 10.6444 2.4999C10.475 2.49817 10.3079 2.53952 10.1588 2.62006C10.0098 2.70059 9.88362 2.81768 9.7922 2.96032C9.70078 3.10297 9.6471 3.26651 9.6362 3.43558C9.58024 4.38376 9.33236 5.3107 8.90759 6.16025C8.48282 7.0098 7.88999 7.76427 7.16503 8.37794L6.93456 8.56544C6.17648 9.07553 5.50546 9.70434 4.94726 10.4277C4.07958 11.5208 3.47851 12.8011 3.19172 14.1669C2.90493 15.5328 2.94031 16.9466 3.29506 18.2964C3.6498 19.6462 4.31415 20.8948 5.23543 21.9431C6.1567 22.9914 7.30956 23.8107 8.60257 24.336C8.75439 24.398 8.91914 24.4217 9.08229 24.405C9.24545 24.3883 9.40198 24.3318 9.5381 24.2403C9.67422 24.1488 9.78573 24.0252 9.8628 23.8805C9.93987 23.7357 9.98013 23.5742 9.98003 23.4102C9.97932 23.3041 9.96252 23.1987 9.93023 23.0977C9.7065 22.2567 9.64208 21.3813 9.74028 20.5166C10.6865 22.3013 12.2054 23.716 14.0528 24.5332C14.2783 24.6341 14.5332 24.6477 14.7681 24.5713C16.2277 24.1002 17.5425 23.2637 18.5878 22.1414C19.633 21.019 20.3739 19.648 20.74 18.1586C21.1061 16.6692 21.0853 15.111 20.6796 13.6319C20.2739 12.1529 19.4967 10.8021 18.4219 9.70801ZM14.5171 22.5391C13.6454 22.0973 12.8765 21.477 12.2603 20.7185C11.6441 19.9601 11.1944 19.0804 10.9405 18.1367C10.8629 17.819 10.8029 17.4972 10.7608 17.1729C10.7322 16.9663 10.6398 16.7739 10.4965 16.6224C10.3532 16.4709 10.1661 16.3681 9.96146 16.3281C9.89841 16.3157 9.8343 16.3095 9.77003 16.3096C9.59427 16.3095 9.42161 16.3558 9.26944 16.4438C9.11728 16.5317 8.991 16.6582 8.90333 16.8106C8.0736 18.2417 7.65633 19.8746 7.69776 21.5284C6.968 20.961 6.35811 20.2544 5.90344 19.4495C5.44876 18.6447 5.15835 17.7576 5.04903 16.8397C4.93971 15.9219 5.01366 14.9914 5.26658 14.1023C5.51951 13.2132 5.94639 12.3831 6.52247 11.6602C6.95989 11.092 7.48756 10.5995 8.08447 10.2022C8.11032 10.1855 8.1351 10.1672 8.15869 10.1475C8.15869 10.1475 8.45541 9.90199 8.46555 9.89637C9.89025 8.69134 10.9035 7.07192 11.3643 5.26371C12.4538 6.27095 13.1804 7.60974 13.431 9.07222C13.6817 10.5347 13.4425 12.039 12.7505 13.3516C12.6591 13.5268 12.6216 13.7251 12.6427 13.9215C12.6639 14.1179 12.7427 14.3037 12.8693 14.4554C12.9959 14.6071 13.1646 14.7179 13.3541 14.7738C13.5436 14.8297 13.7454 14.8282 13.9341 14.7696C15.4659 14.2894 16.8138 13.3515 17.7964 12.0821C18.3869 12.9544 18.773 13.9487 18.9259 14.991C19.0787 16.0332 18.9944 17.0965 18.6792 18.1017C18.364 19.1068 17.826 20.0278 17.1054 20.7961C16.3847 21.5645 15.5 22.1602 14.5171 22.5391Z" fill="white"/>
<path d="M8.58597 13.5342C8.78375 13.5342 8.97709 13.4682 9.14154 13.3446C9.30599 13.221 9.43416 13.0453 9.50985 12.8397C9.58554 12.6341 9.60534 12.4079 9.56675 12.1897C9.52817 11.9715 9.43293 11.771 9.29308 11.6137C9.15322 11.4563 8.97504 11.3492 8.78106 11.3058C8.58708 11.2624 8.38601 11.2847 8.20329 11.3698C8.02056 11.455 7.86438 11.5991 7.7545 11.7842C7.64462 11.9692 7.58597 12.1867 7.58597 12.4092C7.58626 12.7074 7.69171 12.9934 7.87918 13.2043C8.06666 13.4152 8.32084 13.5338 8.58597 13.5342ZM8.58597 12.0342C8.6519 12.0342 8.71634 12.0562 8.77116 12.0974C8.82598 12.1386 8.8687 12.1971 8.89393 12.2657C8.91916 12.3342 8.92576 12.4096 8.9129 12.4823C8.90004 12.5551 8.86829 12.6219 8.82167 12.6743C8.77505 12.7268 8.71566 12.7625 8.651 12.777C8.58634 12.7914 8.51932 12.784 8.45841 12.7556C8.3975 12.7272 8.34544 12.6792 8.30881 12.6175C8.27219 12.5558 8.25264 12.4833 8.25264 12.4092C8.25269 12.3097 8.28783 12.2144 8.35033 12.1441C8.41283 12.0738 8.49758 12.0342 8.58597 12.0342ZM11.4141 14.4658C11.2163 14.4658 11.023 14.5318 10.8585 14.6554C10.6941 14.779 10.5659 14.9547 10.4902 15.1603C10.4145 15.3659 10.3947 15.5921 10.4333 15.8103C10.4719 16.0285 10.5671 16.229 10.707 16.3863C10.8468 16.5436 11.025 16.6508 11.219 16.6942C11.413 16.7376 11.6141 16.7153 11.7968 16.6302C11.9795 16.545 12.1357 16.4008 12.2456 16.2158C12.3554 16.0308 12.4141 15.8133 12.4141 15.5908C12.4138 15.2925 12.3084 15.0066 12.1209 14.7957C11.9334 14.5848 11.6792 14.4661 11.4141 14.4658ZM11.4141 15.9658C11.3482 15.9658 11.2837 15.9438 11.2289 15.9026C11.1741 15.8614 11.1314 15.8028 11.1061 15.7343C11.0809 15.6658 11.0743 15.5904 11.0872 15.5177C11.1 15.4449 11.1318 15.3781 11.1784 15.3256C11.225 15.2732 11.2844 15.2375 11.3491 15.223C11.4137 15.2085 11.4807 15.216 11.5417 15.2444C11.6026 15.2727 11.6546 15.3208 11.6913 15.3825C11.7279 15.4441 11.7474 15.5166 11.7474 15.5908C11.7474 15.6902 11.7122 15.7856 11.6497 15.8559C11.5872 15.9262 11.5025 15.9657 11.4141 15.9658ZM12.569 11.1099C12.5381 11.075 12.5013 11.0474 12.4609 11.0286C12.4205 11.0097 12.3771 11 12.3334 11C12.2896 11 12.2462 11.0097 12.2058 11.0286C12.1654 11.0474 12.1286 11.075 12.0977 11.1099L7.43101 16.3599C7.39974 16.3946 7.37489 16.436 7.35788 16.4815C7.34087 16.5271 7.33205 16.576 7.33191 16.6255C7.33177 16.6749 7.34033 16.7239 7.35708 16.7696C7.37384 16.8153 7.39846 16.8568 7.42953 16.8918C7.46061 16.9268 7.49752 16.9545 7.53815 16.9733C7.57878 16.9922 7.62232 17.0018 7.66626 17.0016C7.71021 17.0015 7.75369 16.9915 7.79421 16.9724C7.83473 16.9533 7.87149 16.9253 7.90237 16.8901L12.569 11.6401C12.6 11.6053 12.6245 11.564 12.6413 11.5185C12.6581 11.473 12.6667 11.4242 12.6667 11.375C12.6667 11.3257 12.6581 11.277 12.6413 11.2315C12.6245 11.186 12.6 11.1447 12.569 11.1099Z" fill="white"/>
</svg>
