<svg width="24" height="26" viewBox="0 0 24 26" fill="none" xmlns="http://www.w3.org/2000/svg">
<path d="M21.38 6.76001C21.3458 6.63232 21.2867 6.51266 21.206 6.40795C21.1254 6.30325 21.0247 6.21558 20.91 6.15001L15.71 3.15001C15.5964 3.08348 15.4709 3.04001 15.3405 3.0221C15.2101 3.00418 15.0775 3.01218 14.9502 3.04562C14.823 3.07907 14.7035 3.1373 14.5988 3.21699C14.4941 3.29668 14.4061 3.39626 14.34 3.51001L12 7.57001L9.65997 3.51001C9.59381 3.39626 9.50584 3.29668 9.40112 3.21699C9.2964 3.1373 9.17698 3.07907 9.0497 3.04562C8.92243 3.01218 8.7898 3.00418 8.65943 3.0221C8.52906 3.04001 8.40351 3.08348 8.28997 3.15001L3.08997 6.15001C2.9752 6.21558 2.87457 6.30325 2.7939 6.40795C2.71323 6.51266 2.65411 6.63232 2.61997 6.76001C2.55379 7.01346 2.58969 7.28276 2.71997 7.51001L6.71997 14.34C6.27372 15.1576 6.02701 16.069 5.99997 17C5.99759 17.9083 6.20145 18.8053 6.59619 19.6233C6.99093 20.4413 7.56623 21.1591 8.27873 21.7224C8.99122 22.2857 9.82232 22.6799 10.7093 22.8753C11.5964 23.0707 12.5162 23.0621 13.3994 22.8502C14.2826 22.6384 15.1063 22.2288 15.8081 21.6523C16.51 21.0758 17.0719 20.3475 17.4513 19.5222C17.8308 18.697 18.0179 17.7964 17.9986 16.8883C17.9793 15.9802 17.7541 15.0884 17.34 14.28L21.24 7.52001C21.3126 7.40895 21.3623 7.28456 21.3864 7.15408C21.4104 7.0236 21.4082 6.88964 21.38 6.76001ZM4.99997 7.38001L8.45997 5.38001L11.68 11C10.3074 11.0848 9.00676 11.6432 7.99997 12.58L4.99997 7.38001ZM12 21C10.9391 21 9.92169 20.5786 9.17154 19.8284C8.4214 19.0783 7.99997 18.0609 7.99997 17C7.99997 15.9391 8.4214 14.9217 9.17154 14.1716C9.92169 13.4214 10.9391 13 12 13C13.0608 13 14.0783 13.4214 14.8284 14.1716C15.5785 14.9217 16 15.9391 16 17C16 18.0609 15.5785 19.0783 14.8284 19.8284C14.0783 20.5786 13.0608 21 12 21ZM16 12.55C15.457 12.0541 14.8262 11.6641 14.14 11.4L13.16 9.57001L15.58 5.38001L19.04 7.38001L16 12.55Z" fill="white"/>
</svg>
