<svg width="24" height="26" viewBox="0 0 24 26" fill="none" xmlns="http://www.w3.org/2000/svg">
<path d="M21 12.24C20.9951 12.2136 20.9951 12.1864 21 12.16V11.97C21 11.74 20.94 11.51 20.9 11.28C20.8943 11.2268 20.8943 11.1732 20.9 11.12C20.85 10.87 20.78 10.63 20.71 10.39C20.2824 9.00973 19.5256 7.75416 18.5047 6.73154C17.4838 5.70892 16.2295 4.94992 14.85 4.52H14.77C14.55 4.45 14.32 4.39 14.09 4.34H13.91C13.7282 4.30357 13.5446 4.27686 13.36 4.26H13.12V4C13.12 3.73478 13.0146 3.48043 12.8271 3.29289C12.6396 3.10536 12.3852 3 12.12 3C11.8548 3 11.6004 3.10536 11.4129 3.29289C11.2253 3.48043 11.12 3.73478 11.12 4V4.06C10.7834 4.10047 10.4495 4.16057 10.12 4.24C9.90993 4.27921 9.70278 4.33266 9.49999 4.4H9.36999C9.11999 4.48 8.88999 4.57 8.64999 4.66C7.41518 5.14891 6.30498 5.90708 5.40023 6.8793C4.49549 7.85151 3.81898 9.01328 3.41999 10.28C3.41653 10.3065 3.41653 10.3334 3.41999 10.36C3.34269 10.5961 3.27925 10.8365 3.22999 11.08V11.24C3.17665 11.48 3.13665 11.73 3.10999 11.99C3.10999 11.99 3.10999 12.06 3.10999 12.1C3.10999 12.14 3.10999 12.16 3.10999 12.19C3.10999 12.22 3.10999 12.19 3.10999 12.24C3.10999 12.49 3.10999 12.74 3.10999 13C3.10999 13.2652 3.21534 13.5196 3.40288 13.7071C3.59042 13.8946 3.84477 14 4.10999 14H11.11V20C11.11 20.2652 11.0046 20.5196 10.8171 20.7071C10.6296 20.8946 10.3752 21 10.11 21C9.84476 21 9.59041 20.8946 9.40287 20.7071C9.21533 20.5196 9.10999 20.2652 9.10999 20C9.10999 19.7348 9.00463 19.4804 8.81709 19.2929C8.62956 19.1054 8.3752 19 8.10999 19C7.84477 19 7.59042 19.1054 7.40288 19.2929C7.21534 19.4804 7.10999 19.7348 7.10999 20C7.10999 20.7956 7.42606 21.5587 7.98867 22.1213C8.55127 22.6839 9.31433 23 10.11 23C10.9056 23 11.6687 22.6839 12.2313 22.1213C12.7939 21.5587 13.11 20.7956 13.11 20V14H20.11C20.3752 14 20.6296 13.8946 20.8171 13.7071C21.0046 13.5196 21.11 13.2652 21.11 13C21 12.74 21 12.49 21 12.24ZM7.99999 12H5.07999C5.07999 12 5.07999 11.93 5.07999 11.89C5.07999 11.85 5.07999 11.61 5.15999 11.48C5.23999 11.35 5.15999 11.35 5.15999 11.29C5.15999 11.23 5.23999 10.97 5.28999 10.81V10.73C5.61003 9.82311 6.11351 8.99189 6.76903 8.2882C7.42454 7.58452 8.21803 7.02345 9.09999 6.64C8.42999 8.35076 8.05794 10.1636 7.99999 12ZM9.99999 12C10.19 8.09 11.44 6 12 6C12.56 6 13.79 8.09 14 12H9.99999ZM16 12C15.942 10.1636 15.57 8.35076 14.9 6.64C15.7701 7.03569 16.5499 7.60538 17.1914 8.31396C17.8329 9.02254 18.3225 9.85499 18.63 10.76C18.6905 10.9335 18.7406 11.1105 18.78 11.29C18.7755 11.3399 18.7755 11.3901 18.78 11.44C18.78 11.58 18.84 11.73 18.86 11.87C18.88 12.01 18.86 11.94 18.86 11.98L16 12Z" fill="white"/>
</svg>
