<svg width="124" height="47" viewBox="0 0 124 47" fill="none" xmlns="http://www.w3.org/2000/svg">
<path d="M112.495 35.9086C115.991 35.8952 119.328 34.1811 121.414 30.9488C122.858 28.7125 123.536 25.8902 123.536 23.1417C123.536 20.3931 122.858 17.5726 121.414 15.3346C119.328 12.104 115.989 10.39 112.495 10.3765C108.996 10.39 105.666 12.104 103.574 15.3346C102.133 17.5726 101.449 20.3948 101.449 23.1417C101.449 25.8886 102.133 28.7125 103.574 30.9488C105.666 34.1811 108.997 35.8935 112.495 35.9086ZM107.105 20.2107C107.913 17.4672 109.834 15.2744 112.495 15.2593C115.153 15.2744 117.076 17.4655 117.889 20.2107C118.144 21.0845 118.317 22.1491 118.317 23.1434C118.317 24.1377 118.144 25.2023 117.889 26.0761C117.076 28.8196 115.153 31.0124 112.495 31.0275C109.834 31.0107 107.913 28.8196 107.105 26.0761C106.848 25.2023 106.678 24.1327 106.678 23.1434C106.678 22.1541 106.849 21.0845 107.105 20.2107Z" fill="white"/>
<path d="M50.0457 38.0094C53.542 37.9961 56.8785 36.2819 58.9649 33.0497C60.4088 30.8133 61.0863 27.9911 61.0863 25.2425C61.0863 22.494 60.4088 19.6734 58.9649 17.4355C56.8785 14.2048 53.54 12.4908 50.0457 12.4773C46.5463 12.4908 43.2168 14.2048 41.1244 17.4355C39.6835 19.6734 39 22.4957 39 25.2425C39 27.9895 39.6835 30.8133 41.1244 33.0497C43.2168 36.2819 46.5473 37.9944 50.0457 38.0094ZM44.6557 22.3115C45.4631 19.568 47.3847 17.3752 50.0457 17.3601C52.7037 17.3752 54.6262 19.5663 55.4396 22.3115C55.6944 23.1853 55.8673 24.2499 55.8673 25.2442C55.8673 26.2385 55.6944 27.3031 55.4396 28.1769C54.6262 30.9204 52.7037 33.1132 50.0457 33.1283C47.3847 33.1115 45.4631 30.9204 44.6557 28.1769C44.3989 27.3031 44.2281 26.2335 44.2281 25.2442C44.2281 24.2549 44.3999 23.1853 44.6557 22.3115Z" fill="white"/>
<path d="M32.3202 36.0023H36.026C36.3772 36.0023 36.6679 35.6726 36.6679 35.2742V0.728149C36.6664 0.32809 36.3772 0 36.026 0H32.3202C31.9631 0 31.6797 0.32809 31.6797 0.728149V35.2758C31.6797 35.6743 31.9631 36.004 32.3202 36.004" fill="white"/>
<path d="M24.7945 36.4756H35.2097C36.1876 36.4756 37 36.1459 37 35.7476V1.20536C37 0.805348 36.1834 0.477295 35.2055 0.477295H24.7903C23.7998 0.477295 23 0.805348 23 1.20536V35.7492C23 36.1476 23.7998 36.4773 24.7945 36.4773" fill="white"/>
<path d="M88.6294 36.0023H92.3352C92.6924 36.0023 92.9787 35.6726 92.9787 35.2742L92.9831 21.1715C92.9831 16.7792 95.5554 14.6684 99.7456 15.6477C100.251 15.7665 100.629 15.4669 100.622 14.8124V11.8646C100.622 11.113 100.558 10.8151 100.07 10.6561H100.067C99.3819 10.4518 97.9 10.3749 97.4973 10.3782C94.8028 10.3782 92.3824 11.6085 90.7222 13.4783C89.5032 14.8593 87.9934 17.0253 87.9934 20.7999V35.2758C87.9934 35.6742 88.2827 36.004 88.6324 36.004" fill="white"/>
<path d="M73.7179 35.9086C76.0068 35.8986 78.2279 35.1588 80.0727 33.7426V36.8294C80.0727 41.0224 76.8391 41.7825 74.7716 41.928C73.3843 42.0234 71.4096 41.8109 70.5212 41.6586C69.9545 41.5664 69.5546 41.6752 69.5546 42.3482V46.0659C69.5442 46.3404 69.7406 46.635 70.1405 46.6735C74.9383 47.1422 78.1733 47.0418 80.6069 45.475C82.3379 44.3602 83.5246 42.5172 84.1488 40.3663C84.6048 38.8179 84.7612 36.9147 84.7612 35.2626V23.1435C84.7612 20.3597 84.106 17.6196 82.6376 15.3364C80.5508 12.1041 77.2154 10.3917 73.7179 10.3783C70.2202 10.3917 66.8863 12.1041 64.7951 15.3364C61.9408 19.7622 61.9379 26.5214 64.7951 30.9505C66.8863 34.1828 70.2202 35.8952 73.7179 35.9103M68.3311 20.2108C69.1339 17.4672 71.0599 15.2594 73.7179 15.2594C79.6742 15.2594 79.8734 22.1508 79.8734 23.1435C79.8734 24.1361 79.6742 31.0275 73.7179 31.0275C71.0584 31.0275 69.1339 28.8197 68.3311 26.0744C68.0684 25.2024 67.8972 24.1327 67.8972 23.1435C67.8972 22.1542 68.0684 21.0845 68.3311 20.2108Z" fill="white"/>
<path d="M2.29636 34.136C3.71461 35.4048 5.64791 36.0041 8.04905 36.0041H9.79344L18.9537 36.0024C19.308 36.0024 19.5928 35.6727 19.5928 35.2743L19.5883 28.1183L19.5839 20.6142C19.5839 17.2764 18.9286 14.7137 17.5178 13.0013C16.0508 11.2236 13.2616 10.3833 10.6347 10.3833C8.00769 10.3833 5.32175 11.1499 3.08739 12.6547C2.94276 12.7535 2.85568 12.9309 2.85568 13.1201V13.1519L3.05492 16.8312C3.08739 17.3283 3.60392 17.4907 3.99944 17.2094C7.23145 14.9313 11.1098 14.5112 13.0727 15.6292C14.4525 16.4193 14.82 18.0832 14.82 19.1596V19.6968H9.41862C7.10306 19.6968 0 20.6309 0 28.0747V28.1986C0 30.7396 0.770379 32.7884 2.29784 34.136M9.7078 24.1796H14.8185V31.4544H8.36931C7.51626 31.3925 6.76657 31.143 6.08328 30.5455C5.34832 29.8994 5.01036 29.1393 5.00446 28.1434C5.00446 28.135 5.00446 28.1266 5.00446 28.1183C5.02512 26.7942 5.81172 24.1796 9.7093 24.1796" fill="white"/>
</svg>
