<svg width="192" height="48" viewBox="0 0 192 48" fill="none" xmlns="http://www.w3.org/2000/svg">
<path d="M168.879 1.17712H158.779V4.79444H168.879V1.17712Z" fill="#FF5A00"/>
<path d="M191.739 1.17712H175.259V4.79444H191.739V1.17712Z" fill="#FF5A00"/>
<path d="M112.495 36.4312C115.991 36.4179 119.328 34.7038 121.414 31.4715C122.858 29.2351 123.536 26.4129 123.536 23.6643C123.536 20.9158 122.858 18.0953 121.414 15.8573C119.328 12.6266 115.989 10.9126 112.495 10.8991C108.996 10.9126 105.666 12.6266 103.574 15.8573C102.133 18.0953 101.449 20.9175 101.449 23.6643C101.449 26.4113 102.133 29.2351 103.574 31.4715C105.666 34.7038 108.997 36.4162 112.495 36.4312ZM107.105 20.7333C107.912 17.9899 109.834 15.797 112.495 15.7819C115.153 15.797 117.076 17.9882 117.889 20.7333C118.144 21.6071 118.317 22.6717 118.317 23.666C118.317 24.6603 118.144 25.7249 117.889 26.5988C117.076 29.3422 115.153 31.5351 112.495 31.5501C109.834 31.5334 107.912 29.3422 107.105 26.5988C106.848 25.7249 106.677 24.6554 106.677 23.666C106.677 22.6767 106.849 21.6071 107.105 20.7333Z" fill="#FF5A00"/>
<path d="M50.0457 38.5321C53.542 38.5188 56.8785 36.8046 58.9649 33.5724C60.4088 31.336 61.0863 28.5138 61.0863 25.7652C61.0863 23.0167 60.4088 20.1961 58.9649 17.9582C56.8785 14.7275 53.54 13.0135 50.0457 13C46.5463 13.0135 43.2168 14.7275 41.1244 17.9582C39.6835 20.1961 39 23.0184 39 25.7652C39 28.5122 39.6835 31.336 41.1244 33.5724C43.2168 36.8046 46.5473 38.5171 50.0457 38.5321ZM44.6557 22.8342C45.4631 20.0907 47.3847 17.8979 50.0457 17.8828C52.7037 17.8979 54.6262 20.089 55.4396 22.8342C55.6944 23.708 55.8673 24.7726 55.8673 25.7669C55.8673 26.7612 55.6944 27.8258 55.4396 28.6996C54.6262 31.4431 52.7037 33.636 50.0457 33.651C47.3847 33.6343 45.4631 31.4431 44.6557 28.6996C44.3989 27.8258 44.2281 26.7562 44.2281 25.7669C44.2281 24.7776 44.3999 23.708 44.6557 22.8342Z" fill="#FF5A00"/>
<path d="M32.3201 36.525H36.0259C36.3771 36.525 36.6678 36.1953 36.6678 35.7969V1.25079C36.6663 0.850734 36.3771 0.522644 36.0259 0.522644H32.3201C31.963 0.522644 31.6796 0.850734 31.6796 1.25079V35.7985C31.6796 36.197 31.963 36.5267 32.3201 36.5267" fill="#FF5A00"/>
<path d="M24.7945 36.9983H35.2097C36.1876 36.9983 37 36.6686 37 36.2703V1.72807C37 1.32805 36.1834 1 35.2055 1H24.7903C23.7998 1 23 1.32805 23 1.72807V36.2719C23 36.6703 23.7998 37 24.7945 37" fill="#FF5A00"/>
<path d="M88.6294 36.525H92.3352C92.6924 36.525 92.9787 36.1953 92.9787 35.7969L92.9831 21.6942C92.9831 17.3019 95.5554 15.1911 99.7456 16.1703C100.251 16.2891 100.629 15.9895 100.622 15.335V12.3872C100.622 11.6357 100.558 11.3377 100.07 11.1787H100.067C99.3819 10.9745 97.9 10.8975 97.4973 10.9008C94.8028 10.9008 92.3824 12.1312 90.7222 14.0009C89.5032 15.3819 87.9934 17.5479 87.9934 21.3225V35.7985C87.9934 36.1968 88.2827 36.5267 88.6324 36.5267" fill="#FF5A00"/>
<path d="M73.718 36.4313C76.007 36.4213 78.228 35.6814 80.0728 34.2653V37.352C80.0728 41.5451 76.8392 42.3051 74.7717 42.4506C73.3844 42.5461 71.4097 42.3335 70.5213 42.1812C69.9546 42.0891 69.5547 42.1979 69.5547 42.8709V46.5886C69.5443 46.8631 69.7407 47.1576 70.1406 47.1962C74.9385 47.6648 78.1734 47.5644 80.607 45.9976C82.3381 44.8828 83.5247 43.0399 84.1489 40.8889C84.605 39.3405 84.7613 37.4374 84.7613 35.7852V23.6662C84.7613 20.8824 84.1061 18.1422 82.6377 15.859C80.5509 12.6267 77.2155 10.9143 73.718 10.9009C70.2203 10.9143 66.8864 12.6267 64.7952 15.859C61.941 20.2848 61.9381 27.0441 64.7952 31.4732C66.8864 34.7055 70.2203 36.4179 73.718 36.433M68.3312 20.7334C69.134 17.9899 71.06 15.7821 73.718 15.7821C79.6743 15.7821 79.8735 22.6734 79.8735 23.6662C79.8735 24.6588 79.6743 31.5501 73.718 31.5501C71.0585 31.5501 69.134 29.3423 68.3312 26.5971C68.0685 25.725 67.8974 24.6554 67.8974 23.6662C67.8974 22.6768 68.0685 21.6072 68.3312 20.7334Z" fill="#FF5A00"/>
<path d="M2.29636 34.6586C3.71461 35.9274 5.64791 36.5266 8.04905 36.5266H9.79344L18.9537 36.5249C19.308 36.5249 19.5928 36.1952 19.5928 35.7969L19.5883 28.6408L19.5839 21.1368C19.5839 17.799 18.9286 15.2363 17.5178 13.5239C16.0508 11.7462 13.2616 10.9059 10.6347 10.9059C8.00768 10.9059 5.32175 11.6725 3.08739 13.1773C2.94276 13.2761 2.85568 13.4535 2.85568 13.6426V13.6745L3.05492 17.3538C3.08739 17.8509 3.60392 18.0133 3.99944 17.732C7.23145 15.4539 11.1098 15.0338 13.0727 16.1518C14.4525 16.9419 14.82 18.6058 14.82 19.6822V20.2194H9.41862C7.10306 20.2194 0 21.1535 0 28.5973V28.7212C0 31.2622 0.770379 33.311 2.29784 34.6586M9.7078 24.7021H14.8185V31.9769H8.36931C7.51626 31.9151 6.76657 31.6656 6.08328 31.0681C5.34832 30.4219 5.01036 29.6619 5.00446 28.666C5.00446 28.6576 5.00446 28.6492 5.00446 28.6408C5.02512 27.3168 5.81172 24.7021 9.7093 24.7021" fill="#FF5A00"/>
<path d="M140.418 0.522644H138.966V36.5099H140.418V0.522644Z" fill="#FF5A00"/>
<path d="M175.521 24.9432L180.294 36.5099H177.834L173.66 26.0078H174.422L170.248 36.5099H167.786L172.56 24.9432H175.521ZM170.45 34.0727V31.9452H177.521V34.0727H170.45Z" fill="#FF5A00"/>
<path d="M192 24.9432H181.586V27.2566H192V24.9432Z" fill="#FF5A00"/>
<path d="M187.949 26.1166H185.651V36.5099H187.949V26.1166Z" fill="#FF5A00"/>
<path d="M158.162 24.9432V35.3533L157.113 34.1966H164.769V36.5099H155.849V24.9432H158.162Z" fill="#FF5A00"/>
<path d="M169.14 10.4724H159.04V14.0896H169.14V10.4724Z" fill="#FF5A00"/>
<path d="M155.849 4.1416V7.75891H159.038V4.1416H155.849Z" fill="#FF5A00"/>
<path d="M155.85 14.0897V21.3259H159.04V14.0897H155.85Z" fill="#FF5A00"/>
<path d="M169.14 4.14166V10.4724H172.329V4.14166H169.14Z" fill="#FF5A00"/>
<path d="M172.329 17.7086H155.849V21.3259H172.329V17.7086Z" fill="#FF5A00"/>
<path d="M188.809 17.7086H178.709V21.3259H188.809V17.7086Z" fill="#FF5A00"/>
<path d="M188.811 7.75891H175.519V11.3762H188.811V7.75891Z" fill="#FF5A00"/>
<path d="M178.711 17.7069V14.0897H175.521V17.7069H178.711Z" fill="#FF5A00"/>
<path d="M178.711 11.3763V0.522644H175.521V11.3763H178.711Z" fill="#FF5A00"/>
<path d="M192 17.707V11.3763H188.811V17.707H192Z" fill="#FF5A00"/>
</svg>
